<svg width="184" height="252" viewBox="0 0 184 252" fill="none" xmlns="http://www.w3.org/2000/svg">
<path d="M0 10C0 4.47716 4.47715 0 10 0H183.843V252H10C4.47717 252 0 247.523 0 242V10Z" fill="#286331"/>
<path d="M0 230.612C0 225.089 4.47715 220.612 10 220.612H183.843V252H10C4.47717 252 0 247.523 0 242V230.612Z" fill="#183D1E"/>
<path d="M0 10C0 4.47716 4.47715 0 10 0H17.9359V252H10C4.47716 252 0 247.523 0 242V10Z" fill="#183D1E"/>
<path d="M4.48389 235.096C4.48389 229.573 8.96104 225.096 14.4839 225.096H183.843V248.096H14.4839C8.96105 248.096 4.48389 243.619 4.48389 238.096V235.096Z" fill="#E1E1E1"/>
</svg>
