<?xml version="1.0" standalone="no"?>
<!DOCTYPE svg PUBLIC "-//W3C//DTD SVG 20010904//EN"
 "http://www.w3.org/TR/2001/REC-SVG-20010904/DTD/svg10.dtd">
<svg version="1.0" xmlns="http://www.w3.org/2000/svg"
 width="30.000000pt" height="30.000000pt" viewBox="0 0 30.000000 30.000000"
 preserveAspectRatio="xMidYMid meet">

<g transform="translate(0.000000,30.000000) scale(0.100000,-0.100000)"
fill="#000000" stroke="none">
<path d="M20 269 c0 -5 5 -7 10 -4 6 3 10 8 10 11 0 2 -4 4 -10 4 -5 0 -10 -5
-10 -11z"/>
<path d="M265 270 c3 -5 8 -10 11 -10 2 0 4 5 4 10 0 6 -5 10 -11 10 -5 0 -7
-4 -4 -10z"/>
<path d="M43 226 c-30 -14 -29 -18 8 -35 23 -10 34 -10 42 -2 6 6 47 11 99 11
52 0 88 4 88 10 0 6 -36 10 -89 10 -50 0 -93 5 -96 10 -8 12 -23 11 -52 -4z"/>
<path d="M205 170 c-3 -5 -46 -10 -96 -10 -53 0 -89 -4 -89 -10 0 -6 36 -10
88 -10 52 0 93 -5 99 -11 8 -8 19 -8 42 2 38 17 38 21 4 37 -33 15 -40 15 -48
2z"/>
<path d="M43 106 c-30 -14 -29 -18 8 -35 23 -10 34 -10 42 -2 6 6 47 11 99 11
52 0 88 4 88 10 0 6 -36 10 -89 10 -50 0 -93 5 -96 10 -8 12 -23 11 -52 -4z"/>
<path d="M20 30 c0 -5 5 -10 11 -10 5 0 7 5 4 10 -3 6 -8 10 -11 10 -2 0 -4
-4 -4 -10z"/>
<path d="M265 30 c-3 -5 -1 -10 4 -10 6 0 11 5 11 10 0 6 -2 10 -4 10 -3 0 -8
-4 -11 -10z"/>
</g>
</svg>
