<?xml version="1.0" ?><svg height="72" id="svg1025" version="1.1" viewBox="0 0 19.05 19.050001" width="72" xmlns="http://www.w3.org/2000/svg" xmlns:inkscape="http://www.inkscape.org/namespaces/inkscape" xmlns:sodipodi="http://sodipodi.sourceforge.net/DTD/sodipodi-0.dtd" xmlns:svg="http://www.w3.org/2000/svg"><defs id="defs1022"/><g id="layer1" style="opacity:1"><path d="M 10.681142,2.0221121 A 7.6253682,7.5923345 10.261742 0 0 8.3574386,2.0208068 L 7.7870103,3.8833232 A 5.7610277,5.7360705 10.261694 0 0 6.4452588,4.4385723 5.7610277,5.7360705 10.261694 0 0 5.4177709,5.1900415 L 3.5776972,4.7674767 A 7.6253682,7.5923345 10.261742 0 0 2.4164794,6.7694304 l 1.2910181,1.3794127 a 5.7610277,5.7360705 10.261694 0 0 0.048972,2.6933449 l -1.3351581,1.427515 a 7.6253682,7.5923345 10.261742 0 0 0.504057,1.047662 7.6253682,7.5923345 10.261742 0 0 0.6596745,0.956353 l 2.0538367,-0.469611 a 5.7610277,5.7360705 10.261694 0 0 2.0784301,1.107434 l 0.6522646,2.115752 a 7.6253682,7.5923345 10.261742 0 0 2.3229727,0.0026 L 11.38457,14.76816 a 5.7610277,5.7360705 10.261694 0 0 0.827685,-0.388728 5.7610277,5.7360705 10.261694 0 0 0.901212,-0.639866 l 2.360045,0.54437 a 7.6253682,7.5923345 10.261742 0 0 1.159951,-2.002685 l -1.651657,-1.764436 a 5.7610277,5.7360705 10.261694 0 0 0.03286,-2.013191 L 16.629343,6.7797093 A 7.6253682,7.5923345 10.261742 0 0 16.12449,5.7333204 7.6253682,7.5923345 10.261742 0 0 15.465589,4.7756875 L 13.306653,5.2701243 A 5.7610277,5.7360705 10.261694 0 0 11.297044,4.023148 Z m 0.01933,5.472113 A 2.3555049,2.3458608 8.8599608 0 1 11.564112,10.69905 2.3555049,2.3458608 8.8599608 0 1 8.3479628,11.555906 2.3555049,2.3458608 8.8599608 0 1 7.4830311,8.3503404 2.3555049,2.3458608 8.8599608 0 1 10.70047,7.4942251 Z" id="path13737" style="fill:none;fill-rule:evenodd;stroke:#808080;stroke-width:0.499999;stroke-linecap:square;stroke-linejoin:bevel;stroke-miterlimit:4;stroke-dasharray:none;paint-order:markers fill stroke"/></g></svg>