<svg width="33" height="34" viewBox="0 0 33 34" fill="none" xmlns="http://www.w3.org/2000/svg">
<path d="M16.4482 15.8829C16.4482 16.7113 17.1198 17.3829 17.9482 17.3829L31.4482 17.3829C32.2767 17.3829 32.9482 16.7113 32.9482 15.8829C32.9482 15.0545 32.2767 14.3829 31.4482 14.3829H19.4482V2.3829C19.4482 1.55448 18.7767 0.882904 17.9482 0.882904C17.1198 0.882904 16.4482 1.55448 16.4482 2.3829L16.4482 15.8829ZM19.0089 16.9436L28.9084 7.04407L26.7871 4.92275L16.8876 14.8222L19.0089 16.9436Z" fill="#474657"/>
<path d="M16.5107 18.9438C16.5107 18.1154 15.8392 17.4438 15.0107 17.4438L1.51074 17.4438C0.682315 17.4438 0.0107424 18.1154 0.0107424 18.9438C0.0107424 19.7722 0.682315 20.4438 1.51074 20.4438H13.5107V32.4438C13.5107 33.2722 14.1823 33.9438 15.0107 33.9438C15.8392 33.9438 16.5107 33.2722 16.5107 32.4438L16.5107 18.9438ZM13.9501 17.8832L4.05059 27.7827L6.17191 29.904L16.0714 20.0045L13.9501 17.8832Z" fill="#474657"/>
</svg>
