<svg width="25" height="25" viewBox="0 0 25 25" fill="none" xmlns="http://www.w3.org/2000/svg">
<path d="M24.3316 2C24.3316 1.17158 23.66 0.500004 22.8316 0.500004L9.33157 0.500004C8.50314 0.500004 7.83157 1.17158 7.83157 2C7.83157 2.82843 8.50314 3.5 9.33157 3.5L21.3316 3.5L21.3316 15.5C21.3316 16.3284 22.0031 17 22.8316 17C23.66 17 24.3316 16.3284 24.3316 15.5L24.3316 2ZM15.0089 11.944L23.8922 3.06066L21.7709 0.939344L12.8876 9.82267L15.0089 11.944Z" fill="#474657"/>
<path d="M0.500416 22.9546C0.500416 23.783 1.17199 24.4546 2.00042 24.4546L15.5004 24.4546C16.3288 24.4546 17.0004 23.783 17.0004 22.9546C17.0004 22.1261 16.3288 21.4546 15.5004 21.4546L3.50042 21.4546L3.50042 9.45457C3.50042 8.62614 2.82884 7.95457 2.00042 7.95457C1.17199 7.95457 0.500416 8.62614 0.500416 9.45457L0.500416 22.9546ZM9.95008 12.8836L0.939756 21.8939L3.06108 24.0152L12.0714 15.0049L9.95008 12.8836Z" fill="#474657"/>
</svg>
